<?xml version="1.0" encoding="UTF-8" standalone="no"?>
<!-- Creator: CorelDRAW X6 -->

<svg
   xmlns:dc="http://purl.org/dc/elements/1.1/"
   xmlns:cc="http://creativecommons.org/ns#"
   xmlns:rdf="http://www.w3.org/1999/02/22-rdf-syntax-ns#"
   xmlns:svg="http://www.w3.org/2000/svg"
   xmlns="http://www.w3.org/2000/svg"
   xmlns:sodipodi="http://sodipodi.sourceforge.net/DTD/sodipodi-0.dtd"
   xmlns:inkscape="http://www.inkscape.org/namespaces/inkscape"
   xml:space="preserve"
   width="1024"
   height="1024"
   version="1.1"
   style="clip-rule:evenodd;fill-rule:evenodd;image-rendering:optimizeQuality;shape-rendering:geometricPrecision;text-rendering:geometricPrecision"
   viewBox="0 0 70865.874 70865.863"
   id="svg14"
   sodipodi:docname="logo-sync.svg"
   inkscape:version="0.92.2 (unknown)"
   inkscape:export-filename="/home/caligaris/logo-sync.png"
   inkscape:export-xdpi="96"
   inkscape:export-ydpi="96"><metadata
     id="metadata18"><rdf:RDF><cc:Work
         rdf:about=""><dc:format>image/svg+xml</dc:format><dc:type
           rdf:resource="http://purl.org/dc/dcmitype/StillImage" /><dc:title></dc:title></cc:Work></rdf:RDF></metadata><sodipodi:namedview
     pagecolor="#ffffff"
     bordercolor="#666666"
     borderopacity="1"
     objecttolerance="10"
     gridtolerance="10"
     guidetolerance="10"
     inkscape:pageopacity="0"
     inkscape:pageshadow="2"
     inkscape:window-width="1920"
     inkscape:window-height="1017"
     id="namedview16"
     showgrid="false"
     inkscape:zoom="0.5"
     inkscape:cx="-314.59355"
     inkscape:cy="645.63717"
     inkscape:window-x="0"
     inkscape:window-y="30"
     inkscape:window-maximized="1"
     inkscape:current-layer="svg14"
     fit-margin-top="0"
     fit-margin-left="0"
     fit-margin-right="0"
     fit-margin-bottom="0"
     units="px" /><defs
     id="defs4"><style
       type="text/css"
       id="style2"><![CDATA[
    .fil2 {fill:#11A861}
    .fil0 {fill:#3777E3}
    .fil1 {fill:#FFCF63}
   ]]></style><linearGradient
       gradientUnits="userSpaceOnUse"
       y2="20"
       x2="10"
       x1="10"
       id="linear-gradient"
       gradientTransform="matrix(69.204952,0,0,69.204952,-198693.73,32442.42)"><stop
         id="stop4533"
         stop-color="#DFDBD2"
         offset="0" /><stop
         id="stop4535"
         stop-color="#DFDBD2"
         offset="1" /></linearGradient></defs><g
     id="g838"
     transform="matrix(0.49860252,0,0,0.49860252,3070.3369,6678.2776)"><path
       inkscape:connector-curvature="0"
       d="M 44384.975,76894.003 22193.974,115341 H 90707.955 A 32500.75,32500.75 0 0 1 68764.311,84639.546 32500.75,32500.75 0 0 1 69741.29,76894.003 Z"
       style="fill:#a2a2a2;fill-opacity:1;stroke-width:0.99999982"
       id="polygon7" /><path
       inkscape:connector-curvature="0"
       d="m 44384.975,0 34947.693,60541.628 a 32500.744,32500.744 0 0 1 21850.242,-8489.231 32500.744,32500.744 0 0 1 23341.8,9888.198 L 88771.974,0 Z"
       style="fill:#ffef7b;fill-opacity:1;stroke-width:0.99999982"
       id="polygon9" /><polygon
       class="fil2"
       points="66578,38447 44385,0 0,76894 22194,115341 "
       id="polygon11"
       style="fill:#ffbd7b;fill-opacity:1" /><g
       transform="translate(-98352.858,-34903.357)"
       id="g3763"><ellipse
         style="fill:#ffffff;fill-opacity:1;stroke-width:71.48886108"
         id="path4562"
         cx="199663.34"
         cy="119711.67"
         rx="25702.775"
         ry="25702.777" /><path
         inkscape:connector-curvature="0"
         style="opacity:1;fill:#d40000;fill-rule:evenodd;stroke-width:5182.31396484"
         d="m 199663.14,91208.948 a 28502.726,28502.726 0 1 0 28502.93,28502.782 28502.726,28502.726 0 0 0 -28502.93,-28502.782 z m 0,46640.862 a 17899.712,17899.712 0 0 1 -12779.63,-5353.36 l -5358.59,5353.36 v -15116.82 h 15117.49 l -5498.69,5498.47 a 11919.322,11919.322 0 0 0 8519.42,3570.62 12079.974,12079.974 0 0 0 11800.18,-9499.23 h 6079.01 a 18081.094,18081.094 0 0 1 -17879.19,15546.96 z m 18138.36,-21159.4 h -15116.75 l 5493.48,-5498.41 a 11919.322,11919.322 0 0 0 -8515.09,-3570.6 12085.156,12085.156 0 0 0 -11800.06,9499.13 h -6079.14 a 18086.276,18086.276 0 0 1 17879.2,-15546.95 17858.254,17858.254 0 0 1 12779.62,5358.52 l 5358.74,-5358.52 z"
         id="path4543" /></g></g></svg>