<?xml version="1.0" encoding="UTF-8" standalone="no"?>
<!-- Creator: CorelDRAW X6 -->

<svg
   xmlns:dc="http://purl.org/dc/elements/1.1/"
   xmlns:cc="http://creativecommons.org/ns#"
   xmlns:rdf="http://www.w3.org/1999/02/22-rdf-syntax-ns#"
   xmlns:svg="http://www.w3.org/2000/svg"
   xmlns="http://www.w3.org/2000/svg"
   xmlns:sodipodi="http://sodipodi.sourceforge.net/DTD/sodipodi-0.dtd"
   xmlns:inkscape="http://www.inkscape.org/namespaces/inkscape"
   xml:space="preserve"
   width="410.70853"
   height="410.70853"
   version="1.1"
   style="clip-rule:evenodd;fill-rule:evenodd;image-rendering:optimizeQuality;shape-rendering:geometricPrecision;text-rendering:geometricPrecision"
   viewBox="0 0 28423.065 28423.061"
   id="svg14"
   sodipodi:docname="sync.svg"
   inkscape:version="0.92.2 (unknown)"
   inkscape:export-filename="/home/caligaris/logo-sync.png"
   inkscape:export-xdpi="96"
   inkscape:export-ydpi="96"><metadata
     id="metadata18"><rdf:RDF><cc:Work
         rdf:about=""><dc:format>image/svg+xml</dc:format><dc:type
           rdf:resource="http://purl.org/dc/dcmitype/StillImage" /><dc:title></dc:title></cc:Work></rdf:RDF></metadata><sodipodi:namedview
     pagecolor="#ffffff"
     bordercolor="#666666"
     borderopacity="1"
     objecttolerance="10"
     gridtolerance="10"
     guidetolerance="10"
     inkscape:pageopacity="0"
     inkscape:pageshadow="2"
     inkscape:window-width="1920"
     inkscape:window-height="1017"
     id="namedview16"
     showgrid="false"
     inkscape:zoom="0.5"
     inkscape:cx="-500.51918"
     inkscape:cy="424.51189"
     inkscape:window-x="0"
     inkscape:window-y="30"
     inkscape:window-maximized="1"
     inkscape:current-layer="svg14"
     fit-margin-top="0"
     fit-margin-left="0"
     fit-margin-right="0"
     fit-margin-bottom="0"
     units="px" /><defs
     id="defs4"><style
       type="text/css"
       id="style2"><![CDATA[
    .fil2 {fill:#11A861}
    .fil0 {fill:#3777E3}
    .fil1 {fill:#FFCF63}
   ]]></style><linearGradient
       gradientUnits="userSpaceOnUse"
       y2="20"
       x2="10"
       x1="10"
       id="linear-gradient"
       gradientTransform="matrix(69.204952,0,0,69.204952,-198693.73,32442.42)"><stop
         id="stop4533"
         stop-color="#DFDBD2"
         offset="0" /><stop
         id="stop4535"
         stop-color="#DFDBD2"
         offset="1" /></linearGradient></defs><g
     id="g3763"
     transform="matrix(0.49860252,0,0,0.49860252,-85341.115,-45477.011)"><ellipse
       ry="25702.777"
       rx="25702.775"
       cy="119711.67"
       cx="199663.34"
       id="path4562"
       style="fill:#ffffff;fill-opacity:1;stroke-width:71.48886108" /><path
       id="path4543"
       d="m 199663.14,91208.948 a 28502.726,28502.726 0 1 0 28502.93,28502.782 28502.726,28502.726 0 0 0 -28502.93,-28502.782 z m 0,46640.862 a 17899.712,17899.712 0 0 1 -12779.63,-5353.36 l -5358.59,5353.36 v -15116.82 h 15117.49 l -5498.69,5498.47 a 11919.322,11919.322 0 0 0 8519.42,3570.62 12079.974,12079.974 0 0 0 11800.18,-9499.23 h 6079.01 a 18081.094,18081.094 0 0 1 -17879.19,15546.96 z m 18138.36,-21159.4 h -15116.75 l 5493.48,-5498.41 a 11919.322,11919.322 0 0 0 -8515.09,-3570.6 12085.156,12085.156 0 0 0 -11800.06,9499.13 h -6079.14 a 18086.276,18086.276 0 0 1 17879.2,-15546.95 17858.254,17858.254 0 0 1 12779.62,5358.52 l 5358.74,-5358.52 z"
       style="opacity:1;fill:#d40000;fill-rule:evenodd;stroke-width:5182.31396484"
       inkscape:connector-curvature="0" /></g></svg>