<?xml version="1.0" standalone="no"?>
<!DOCTYPE svg PUBLIC "-//W3C//DTD SVG 20010904//EN"
 "http://www.w3.org/TR/2001/REC-SVG-20010904/DTD/svg10.dtd">
<svg version="1.0" xmlns="http://www.w3.org/2000/svg"
 width="512.000000pt" height="512.000000pt" viewBox="0 0 512.000000 512.000000"
 preserveAspectRatio="xMidYMid meet">
<metadata>
Created by potrace 1.11, written by Peter Selinger 2001-2013
</metadata>
<g transform="translate(0.000000,512.000000) scale(0.100000,-0.100000)"
fill="#000000" stroke="none">
<path d="M895 5110 c-3 -5 -21 -10 -38 -10 -31 0 -194 -48 -236 -69 -12 -6
-29 -15 -38 -19 -207 -100 -367 -256 -466 -457 -48 -96 -97 -238 -97 -279 0
-14 -4 -28 -10 -31 -7 -4 -10 -577 -10 -1685 0 -1108 3 -1681 10 -1685 6 -3
10 -17 10 -31 0 -41 49 -183 97 -279 97 -197 263 -360 466 -457 9 -4 26 -13
38 -19 42 -21 205 -69 236 -69 17 0 35 -4 38 -10 8 -13 3328 -14 3353 -1 9 5
44 16 77 25 120 33 142 41 234 89 93 47 124 70 246 185 133 125 237 316 280
512 9 41 20 89 25 106 13 41 13 3227 0 3268 -5 17 -16 65 -25 106 -43 199
-137 371 -278 509 -111 109 -149 138 -248 188 -101 52 -129 63 -229 88 -36 9
-73 21 -82 26 -25 13 -3345 12 -3353 -1z m-54 -1802 c0 -7 0 -99 -1 -205 -1
-107 3 -194 8 -197 5 -3 41 11 81 31 61 31 83 37 155 41 252 13 447 -171 446
-421 -1 -165 -94 -308 -248 -380 -62 -29 -75 -31 -172 -32 -94 0 -111 3 -165
28 -33 15 -68 35 -77 44 -21 19 -35 10 -40 -27 -3 -24 -6 -25 -68 -25 l-65 0
-3 578 -2 577 75 0 c53 0 75 -4 76 -12z m2344 -364 c97 -45 163 -116 196 -209
17 -48 19 -85 20 -305 1 -138 -1 -254 -5 -257 -5 -5 -86 -7 -138 -3 -4 0 -8
114 -10 253 -3 239 -4 254 -25 294 -28 51 -85 100 -138 119 -53 18 -65 18
-122 -7 -58 -24 -97 -60 -126 -114 -20 -37 -22 -58 -27 -295 l-5 -255 -65 0
c-36 0 -71 3 -77 8 -10 7 -13 61 -13 209 0 225 11 320 46 394 41 87 143 167
249 195 57 15 181 2 240 -27z m965 11 c25 -9 62 -27 82 -41 42 -30 58 -25 58
17 l0 29 70 0 70 0 0 -580 0 -581 -77 3 -78 3 -2 205 c-1 136 -5 206 -12 208
-6 2 -24 -6 -40 -17 -57 -41 -111 -54 -216 -54 -93 0 -105 2 -170 34 -131 63
-212 170 -235 311 -31 187 56 357 226 443 32 16 79 33 104 37 64 10 168 2 220
-17z m-2278 -254 l4 -258 30 -49 c95 -154 292 -149 377 10 20 38 22 57 25 299
l4 258 76 -3 77 -3 3 -220 c3 -229 -4 -301 -38 -381 -29 -68 -105 -142 -180
-178 -58 -27 -75 -30 -160 -30 -84 -1 -103 3 -157 28 -70 32 -148 106 -182
174 -12 23 -26 75 -31 115 -11 82 -13 480 -3 490 3 4 39 7 78 7 l73 0 4 -259z
m698 -948 l0 -157 86 92 c73 78 90 92 117 92 31 0 31 -1 -52 -84 l-84 -84 41
-44 c22 -23 58 -63 80 -88 l41 -45 -32 -3 c-24 -3 -37 2 -52 20 -11 13 -39 46
-62 73 -36 42 -45 48 -60 39 -13 -8 -19 -27 -21 -73 -3 -57 -4 -61 -27 -61
l-25 0 0 240 0 240 25 0 25 0 0 -157z m-966 117 c181 -41 206 -332 36 -417
-38 -20 -60 -23 -152 -23 l-108 0 0 225 0 225 93 0 c50 0 110 -5 131 -10z
m1328 -52 c-3 -37 -3 -38 32 -38 29 0 36 -4 36 -19 0 -15 -8 -21 -32 -23 l-33
-3 -3 -119 c-3 -123 8 -166 43 -166 8 0 15 -7 15 -15 0 -10 -10 -15 -33 -15
-63 0 -66 9 -69 170 -3 142 -3 145 -25 148 -15 2 -23 10 -23 22 0 12 8 20 23
22 17 2 22 10 24 33 0 17 2 34 2 38 1 5 11 7 23 5 20 -3 23 -8 20 -40z m-881
-51 c44 -29 69 -80 69 -139 l0 -48 -120 0 -120 0 0 -29 c0 -17 11 -42 26 -60
21 -25 33 -31 67 -31 42 0 87 29 87 57 0 8 12 13 30 13 30 0 30 0 17 -32 -20
-48 -58 -71 -124 -75 -73 -5 -116 19 -143 80 -33 72 -20 186 27 239 44 50 129
62 184 25z m317 12 c29 -10 72 -62 72 -88 0 -6 -11 -11 -25 -11 -17 0 -29 9
-39 29 -17 32 -34 41 -75 41 -36 0 -51 -17 -51 -57 0 -36 19 -50 98 -74 144
-43 120 -199 -31 -199 -59 0 -102 21 -122 60 -20 39 -20 40 15 40 18 0 30 -5
30 -13 0 -18 29 -43 58 -50 37 -9 81 12 89 41 9 38 -7 54 -83 85 -80 32 -100
48 -107 85 -16 85 76 144 171 111z m941 -17 c63 -46 89 -125 69 -215 -14 -68
-59 -113 -123 -123 -130 -19 -209 49 -209 181 1 87 42 154 110 175 40 13 124
3 153 -18z m378 17 c48 -18 81 -58 94 -114 22 -100 -10 -191 -81 -228 -48 -25
-136 -19 -160 11 -10 12 -20 18 -24 15 -3 -4 -6 -42 -6 -85 0 -77 0 -78 -25
-78 l-25 0 0 240 0 240 25 0 c20 0 25 -5 25 -25 0 -30 15 -33 30 -5 18 33 96
49 147 29z"/>
<path d="M1012 2828 c-43 -15 -119 -82 -154 -137 -25 -39 -28 -54 -28 -123 0
-99 23 -150 95 -216 138 -127 328 -82 420 98 24 47 24 173 0 220 -55 107 -130
161 -233 166 -37 2 -82 -2 -100 -8z"/>
<path d="M3952 2834 c-89 -27 -169 -110 -193 -198 -14 -51 -5 -155 17 -198 41
-80 113 -137 198 -158 49 -11 62 -11 112 5 54 17 102 50 151 105 51 57 68 182
37 272 -21 64 -101 142 -171 168 -61 23 -90 24 -151 4z"/>
<path d="M1440 1656 l0 -186 68 0 c113 0 163 38 183 141 9 46 8 66 -5 112 -24
82 -61 107 -166 114 l-80 6 0 -187z"/>
<path d="M1924 1732 c-28 -22 -44 -54 -44 -86 l0 -26 95 0 95 0 0 25 c0 34
-25 82 -49 95 -29 15 -73 12 -97 -8z"/>
<path d="M3152 1734 c-35 -24 -52 -68 -52 -131 0 -68 23 -114 69 -138 38 -19
54 -19 92 0 44 23 69 71 69 133 0 63 -19 113 -51 136 -30 20 -98 21 -127 0z"/>
<path d="M3573 1740 c-53 -21 -80 -141 -49 -215 15 -36 67 -75 99 -75 32 0 76
30 93 63 23 43 23 132 1 178 -26 53 -85 73 -144 49z"/>
</g>
</svg>
